<svg width="162" height="161" viewBox="0 0 162 161" fill="none" xmlns="http://www.w3.org/2000/svg">
<path d="M139.688 71.05C144.358 70.3044 147.591 65.8908 146.269 61.3504C142.369 47.9534 134.445 35.9945 123.473 27.1558C110.266 16.5172 93.5831 11.1555 76.6515 12.1083C59.7199 13.061 43.7436 20.2606 31.8141 32.3136C19.8847 44.3667 12.8503 60.4164 12.0722 77.357C11.2941 94.2975 16.8275 110.924 27.6018 124.02C38.376 137.116 53.625 145.75 70.398 148.251C87.171 150.752 104.275 146.942 118.401 137.559C130.137 129.764 139.124 118.581 144.237 105.598C145.969 101.198 143.154 96.5068 138.572 95.3363C133.991 94.1658 129.391 96.9746 127.477 101.299C123.538 110.194 117.127 117.847 108.926 123.294C98.3316 130.332 85.5033 133.189 72.9235 131.313C60.3438 129.438 48.907 122.962 40.8263 113.14C32.7457 103.318 28.5956 90.8482 29.1792 78.1427C29.7628 65.4373 35.0386 53.4001 43.9856 44.3602C52.9327 35.3204 64.9149 29.9208 77.6136 29.2062C90.3124 28.4916 102.825 32.5129 112.729 40.4919C120.397 46.6684 126.079 54.8764 129.186 64.0956C130.696 68.577 135.018 71.7956 139.688 71.05Z" fill="#5E84BE"/>
<path fill-rule="evenodd" clip-rule="evenodd" d="M101.868 54.4756C103.393 50.6248 107.752 48.7401 111.603 50.266L136.842 60.2672L146.843 35.0283C148.369 31.1775 152.728 29.2928 156.579 30.8187C160.429 32.3447 162.314 36.7034 160.788 40.5542L148.024 72.7656C146.498 76.6164 142.139 78.5011 138.289 76.9752L106.077 64.2111C102.226 62.6851 100.342 58.3264 101.868 54.4756Z" fill="#5E84BE"/>
</svg>
